<?xml version="1.0" standalone="no"?>
<!DOCTYPE svg PUBLIC "-//W3C//DTD SVG 20010904//EN"
 "http://www.w3.org/TR/2001/REC-SVG-20010904/DTD/svg10.dtd">
<svg version="1.0" xmlns="http://www.w3.org/2000/svg"
 width="512.000000pt" height="512.000000pt" viewBox="0 0 512.000000 512.000000"
 preserveAspectRatio="xMidYMid meet">
<metadata>
Created by potrace 1.11, written by Peter Selinger 2001-2013
</metadata>
<g transform="translate(0.000000,512.000000) scale(0.100000,-0.100000)"
fill="#000000" stroke="none">
<path d="M3600 2560 l0 -2560 760 0 760 0 0 2560 0 2560 -760 0 -760 0 0
-2560z"/>
<path d="M1700 1860 l0 -1860 793 1 c435 1 819 5 852 9 l60 7 -52 2 -53 1 0
1850 0 1850 -800 0 -800 0 0 -1860z"/>
<path d="M0 1160 l0 -1160 700 0 700 0 0 1160 0 1160 -700 0 -700 0 0 -1160z"/>
</g>
</svg>
